<svg xmlns="http://www.w3.org/2000/svg" width="28.511" height="28.505" viewBox="0 0 28.511 28.505"><defs><style>.a{fill:#fff;}</style></defs><path class="a" d="M14.254,9.182a7.308,7.308,0,1,0,7.308,7.308A7.3,7.3,0,0,0,14.254,9.182Zm0,12.06A4.751,4.751,0,1,1,19,16.49a4.76,4.76,0,0,1-4.751,4.751ZM23.566,8.883a1.7,1.7,0,1,1-1.7-1.7A1.7,1.7,0,0,1,23.566,8.883Zm4.84,1.73A8.436,8.436,0,0,0,26.1,4.64a8.491,8.491,0,0,0-5.973-2.3c-2.353-.134-9.407-.134-11.761,0A8.479,8.479,0,0,0,2.4,4.634a8.463,8.463,0,0,0-2.3,5.973c-.134,2.353-.134,9.407,0,11.761A8.436,8.436,0,0,0,2.4,28.34a8.5,8.5,0,0,0,5.973,2.3c2.353.134,9.407.134,11.761,0a8.436,8.436,0,0,0,5.973-2.3,8.491,8.491,0,0,0,2.3-5.973c.134-2.353.134-9.4,0-11.754Zm-3.04,14.28a4.81,4.81,0,0,1-2.71,2.71c-1.876.744-6.329.572-8.4.572s-6.532.165-8.4-.572a4.81,4.81,0,0,1-2.71-2.71c-.744-1.876-.572-6.329-.572-8.4s-.165-6.532.572-8.4a4.81,4.81,0,0,1,2.71-2.71c1.876-.744,6.329-.572,8.4-.572s6.532-.165,8.4.572a4.81,4.81,0,0,1,2.71,2.71c.744,1.876.572,6.329.572,8.4S26.11,23.023,25.366,24.893Z" transform="translate(0.005 -2.238)"/></svg>