<svg xmlns="http://www.w3.org/2000/svg" width="28.789" height="22.817" viewBox="0 0 28.789 22.817"><defs><style>.a{fill:#fff;}</style></defs><path class="a" d="M25.829,9.067c.018.25.018.5.018.749A16.461,16.461,0,0,1,9.06,26.2,16.975,16.975,0,0,1,0,23.613a12.505,12.505,0,0,0,1.425.071,12,12,0,0,0,7.325-2.46,5.9,5.9,0,0,1-5.517-3.993,7.62,7.62,0,0,0,1.114.089,6.386,6.386,0,0,0,1.553-.2,5.8,5.8,0,0,1-4.731-5.651V11.4a6.054,6.054,0,0,0,2.667.731,5.719,5.719,0,0,1-2.63-4.8,5.609,5.609,0,0,1,.8-2.906,16.912,16.912,0,0,0,12.166,6.025,6.349,6.349,0,0,1-.146-1.319,5.828,5.828,0,0,1,5.9-5.758A5.955,5.955,0,0,1,24.24,5.2a11.793,11.793,0,0,0,3.745-1.39,5.77,5.77,0,0,1-2.594,3.173,12.06,12.06,0,0,0,3.4-.891,12.521,12.521,0,0,1-2.959,2.977Z" transform="translate(0 -3.381)"/></svg>