<svg xmlns="http://www.w3.org/2000/svg" width="39.247" height="27.595" viewBox="0 0 39.247 27.595"><defs><style>.a{fill:#fff;}</style></defs><path class="a" d="M39.476,8.818a4.931,4.931,0,0,0-3.47-3.492C32.946,4.5,20.673,4.5,20.673,4.5S8.4,4.5,5.34,5.325A4.931,4.931,0,0,0,1.87,8.818c-.82,3.081-.82,9.508-.82,9.508s0,6.427.82,9.508A4.858,4.858,0,0,0,5.34,31.27c3.061.825,15.333.825,15.333.825s12.273,0,15.333-.825a4.858,4.858,0,0,0,3.47-3.437c.82-3.081.82-9.508.82-9.508s0-6.427-.82-9.508ZM16.659,24.161V12.49l10.258,5.836L16.659,24.161Z" transform="translate(-1.05 -4.5)"/></svg>